<svg width="14" height="8" viewBox="0 0 14 8" fill="none" xmlns="http://www.w3.org/2000/svg">
<path d="M13.0404 2.04044C13.431 1.64992 13.431 1.01675 13.0404 0.626229C12.6499 0.235705 12.0167 0.235705 11.6262 0.626229L13.0404 2.04044ZM6.99999 6.66667L6.29288 7.37378C6.68341 7.7643 7.31657 7.7643 7.7071 7.37378L6.99999 6.66667ZM2.37376 0.626229C1.98324 0.235705 1.35007 0.235705 0.95955 0.626229C0.569025 1.01675 0.569025 1.64992 0.95955 2.04044L2.37376 0.626229ZM11.6262 0.626229L6.29288 5.95956L7.7071 7.37378L13.0404 2.04044L11.6262 0.626229ZM7.7071 5.95956L2.37376 0.626229L0.95955 2.04044L6.29288 7.37378L7.7071 5.95956Z" fill="#2B2B2B"/>
</svg>
